PathFileType	4	(X/Y/Z)	C:/Users/opensim2020/Desktop/walking_exp_matlab/subject01_walking10_straight_04.trc	
DataRate	CameraRate	NumFrames	NumMarkers	Units	OrigDataRate	OrigDataStartFrame	OrigNumFrames	
100.00	100.00	5	43	mm	100.00	3993	274	
Frame#	Time	LFHD			RFHD			LBHD			RBHD			C7			T10			CLAV			STRN			RBAK			LSHO			LUPA			LELB			LFRM			LWRA			LWRB			LFIN			RSHO			RUPA			RELB			RFRM			RWRA			RWRB			RFIN			LASI			RASI			LPSI			RPSI			LTHI			LKNE			LTIB			LANK			LHEE			LTOE			RTHI			RKNE			RTIB			RANK			RHEE			RTOE			*39			*40			*41			*42			
		X1	Y1	Z1	X2	Y2	Z2	X3	Y3	Z3	X4	Y4	Z4	X5	Y5	Z5	X6	Y6	Z6	X7	Y7	Z7	X8	Y8	Z8	X9	Y9	Z9	X10	Y10	Z10	X11	Y11	Z11	X12	Y12	Z12	X13	Y13	Z13	X14	Y14	Z14	X15	Y15	Z15	X16	Y16	Z16	X17	Y17	Z17	X18	Y18	Z18	X19	Y19	Z19	X20	Y20	Z20	X21	Y21	Z21	X22	Y22	Z22	X23	Y23	Z23	X24	Y24	Z24	X25	Y25	Z25	X26	Y26	Z26	X27	Y27	Z27	X28	Y28	Z28	X29	Y29	Z29	X30	Y30	Z30	X31	Y31	Z31	X32	Y32	Z32	X33	Y33	Z33	X34	Y34	Z34	X35	Y35	Z35	X36	Y36	Z36	X37	Y37	Z37	X38	Y38	Z38	X39	Y39	Z39	X40	Y40	Z40	X41	Y41	Z41	X42	Y42	Z42	X43	Y43	Z43	

172	1.710	-987.19995	-130.10603	1660.97253	-1093.17542	-174.43057	1665.18591	-1028.49463	-16.05037	1628.18848	-1141.94788	-60.14190	1633.02612	-1065.89111	19.14557	1422.01270	-1074.25037	56.05382	1132.60815	-1057.21313	-129.51494	1363.66638	-1049.76074	-168.40189	1205.80359	-1148.33850	64.52126	1230.93359	-900.32318	-60.30566	1394.65454	-809.68152	-52.65501	1211.85315	-801.62909	-70.16537	1059.67590	-774.28308	-149.71715	976.70123	-785.04034	-272.09235	911.04419	-767.36676	-224.34222	879.87415	-751.44476	-297.50415	840.40192	-1212.37085	-74.73974	1390.45422	-1315.17566	-18.46438	1191.16223	-1316.83264	-13.33835	1067.14355	-1347.04614	-35.92118	949.07483	-1326.26904	-110.28355	827.87885	-1367.40149	-68.06140	831.82111	-1362.01099	-99.01963	749.63550	-952.56866	-105.46964	923.75012	-1168.82764	-124.02783	926.42285	-1023.97766	74.87055	937.10077	-1168.38147	61.18974	935.80444	-911.50726	-16.65620	594.22717	-930.45105	23.48327	462.45160	-935.05713	123.17074	298.44467	-1000.13715	195.35345	90.16478	-1058.95154	238.21271	71.03814	-984.47321	56.35304	34.54459	-1234.79675	-140.72469	599.02032	-1203.78223	-191.82111	452.58484	-1213.90173	-188.19093	278.23926	-1170.98206	-231.27481	74.60435	-1119.39221	-195.24980	27.65429	-1172.82776	-375.29391	66.31995	-1072.91187	-160.07365	1699.71191	-3101.83057	1973.13196	1023.39886	-3140.80859	2012.53284	1022.12671			 
173	1.720	-989.51276	-137.55424	1660.92188	-1095.43225	-182.07619	1664.97827	-1030.73047	-23.58009	1627.86450	-1144.31470	-67.99932	1632.55957	-1068.22229	11.78400	1421.49841	-1075.97522	48.02757	1132.15088	-1059.05603	-137.07408	1363.32556	-1051.20081	-176.10764	1205.61023	-1150.38159	56.58812	1229.76428	-902.27020	-67.30242	1394.50671	-811.50146	-59.51126	1211.74402	-803.36652	-76.34911	1059.42969	-775.74329	-155.66673	976.16138	-786.24884	-277.79663	909.94971	-768.63635	-229.87900	879.02289	-752.59192	-302.86765	839.27173	-1214.49048	-82.50986	1389.62744	-1317.03516	-26.86744	1189.91199	-1318.39197	-21.99754	1065.82190	-1348.36609	-44.82964	947.68127	-1327.08801	-119.15288	826.60773	-1368.29114	-77.03943	830.46570	-1362.87280	-108.07499	748.39478	-953.16144	-113.63542	923.28888	-1169.23547	-132.57465	925.91882	-1025.42712	66.69392	936.41431	-1170.11536	52.39606	934.93805	-912.00122	-24.15339	593.72717	-930.93298	16.13977	462.02625	-935.37421	118.02362	299.41293	-999.68549	193.96187	92.30845	-1058.25940	237.37579	74.18392	-984.51611	56.13256	34.50630	-1234.72876	-149.62334	599.31232	-1204.05383	-200.06924	452.36755	-1213.05579	-193.75069	278.05444	-1170.69226	-233.66402	74.78601	-1118.89612	-196.64185	28.56706	-1173.29468	-377.64777	61.05317	-1075.24377	-167.57195	1699.28027	-3101.84790	1973.09180	1023.28094	-3140.72485	2012.52234	1022.14838			 
174	1.730	-991.91608	-145.13214	1661.19287	-1097.59070	-189.93687	1665.05957	-1033.15112	-31.18504	1627.97754	-1146.77161	-76.04545	1632.56165	-1070.68811	4.18548	1421.32947	-1077.41748	39.96325	1132.06604	-1060.91357	-144.66753	1363.27917	-1052.76282	-183.75684	1205.72424	-1152.42847	48.60678	1229.05334	-904.27087	-74.43089	1394.62463	-813.48102	-66.37904	1211.77930	-805.17529	-82.75468	1059.36426	-777.27814	-161.52168	975.63593	-787.58429	-283.22397	908.72101	-770.02313	-235.10965	878.11371	-753.80304	-307.72134	838.00720	-1216.71924	-90.32935	1388.98059	-1319.20227	-35.30859	1188.85974	-1319.90674	-30.83610	1064.60413	-1349.59082	-53.75366	946.43781	-1327.87817	-128.12415	825.46887	-1369.23914	-86.12183	829.15430	-1363.60901	-117.23839	747.28998	-953.89905	-121.86185	922.98273	-1169.83459	-141.24451	925.76892	-1026.85168	58.51077	935.87256	-1171.71875	43.74938	934.52795	-912.64685	-32.04614	593.44495	-931.54620	8.15042	461.72839	-935.67328	112.48598	300.62607	-999.14172	192.37625	95.08792	-1057.55200	236.28474	77.86678	-984.50092	55.90521	34.49463	-1234.69043	-157.10167	599.96832	-1204.47400	-208.28065	453.39948	-1212.84119	-199.97162	278.48312	-1171.03223	-236.37262	74.65081	-1119.30725	-197.74847	29.84584	-1172.92175	-380.09985	56.78693	-1077.68323	-175.28981	1699.48413	-3102.04810	1973.07349	1023.72339	-3140.61523	2012.55396	1022.10065			 
175	1.740	-994.32751	-152.84799	1661.54602	-1099.91699	-197.93921	1665.18506	-1037.48682	-39.09321	1628.77734	-1149.25134	-84.10949	1632.75952	-1073.39709	-3.61287	1422.02100	-1078.80457	31.97275	1132.15759	-1062.93494	-152.34605	1363.54834	-1054.40247	-191.56670	1205.93652	-1154.41980	40.74211	1228.86597	-906.21594	-81.81247	1394.99268	-815.56372	-73.18343	1212.12744	-807.05536	-89.08612	1059.50842	-778.98108	-167.15009	975.31360	-789.02539	-288.33597	907.47675	-771.47266	-239.97874	877.17737	-755.04919	-312.18515	836.70874	-1218.89575	-98.19901	1388.67578	-1320.65442	-43.93225	1188.02271	-1321.47107	-39.71561	1063.72913	-1350.86865	-62.85699	945.40149	-1328.74854	-137.14659	824.53491	-1370.06409	-95.38565	828.10345	-1364.49902	-126.39889	746.53052	-954.67175	-130.07056	922.94507	-1170.47034	-149.93860	926.00867	-1028.10669	50.22770	935.54529	-1173.12537	35.27058	934.74457	-913.34393	-40.36111	593.46375	-932.05573	-0.25443	461.65884	-935.78918	106.45626	302.26801	-998.82227	190.37462	98.07774	-1057.01965	234.78169	82.07738	-984.55292	55.64506	34.45364	-1235.00732	-165.44312	600.75677	-1205.17163	-216.62328	454.50104	-1213.44604	-206.62994	279.28342	-1171.57458	-238.96045	74.46818	-1119.99365	-198.97412	30.68086	-1171.38794	-382.53378	52.72209	-1079.99243	-183.25804	1699.75208	-3101.98926	1973.12842	1023.40747	-3140.67993	2012.47485	1021.93500			 
176	1.750	-996.70575	-160.65211	1661.90198	-1102.18970	-205.92918	1665.39209	-1040.11133	-46.89797	1629.15051	-1151.74390	-92.24989	1632.88611	-1075.14087	-11.81858	1422.48291	-1080.23267	24.02036	1132.40051	-1064.91431	-160.02551	1363.92883	-1056.10693	-199.45955	1206.41016	-1156.42822	32.93129	1229.06958	-908.22156	-89.53452	1395.54468	-817.76514	-80.11911	1212.75903	-808.92493	-95.34100	1060.04431	-780.77057	-172.67047	975.15045	-790.54877	-292.85266	906.12079	-773.26044	-244.33397	876.49683	-756.37799	-316.44952	835.27472	-1220.88513	-106.13618	1388.38159	-1322.37708	-52.59838	1187.50098	-1322.94531	-48.74716	1063.10291	-1352.18237	-71.99257	944.77057	-1329.88721	-146.21387	823.83484	-1371.28076	-104.45145	827.51080	-1365.51880	-135.62714	746.00342	-955.53241	-138.35797	923.16907	-1171.20117	-158.61885	926.85443	-1029.19299	41.85360	935.52325	-1173.99158	26.71750	935.45013	-914.17157	-49.12613	593.62512	-932.41431	-9.33990	461.73227	-935.85675	99.96711	304.17981	-998.18103	188.30293	101.72868	-1056.40686	233.02043	86.79281	-984.55023	55.40514	34.50302	-1235.21301	-174.31219	601.91681	-1205.91821	-224.72672	455.15091	-1214.46826	-213.02142	279.95398	-1172.26404	-241.37164	74.26089	-1121.03894	-199.95981	31.76064	-1169.38306	-384.80310	49.00190	-1082.29785	-191.41634	1700.03687	-3102.08911	1972.95569	1023.90454	-3140.73511	2012.47620	1022.08893			 
